<svg width="233" height="233" viewBox="0 0 233 233" fill="none" xmlns="http://www.w3.org/2000/svg">
<g transform="translate(0 10)">
<path d="M63.4717 2.81622C72.603 -1.83853 82.7586 1.03226 91.2549 5.81915L92.0723 6.2879L99.7715 10.7908L90.7656 26.1893L83.0664 21.6863L82.418 21.3143C75.8213 17.6058 72.6468 18.1617 71.5723 18.7098L71.5654 18.7127C70.6535 19.1771 68.8002 20.81 67.708 26.3016C66.6406 31.6688 66.6489 39.2654 68.0879 48.8172C68.8311 53.7504 69.9368 59.0692 71.3926 64.6902C77.1846 63.8325 83.2174 63.1381 89.4404 62.6219C99.8561 45.7883 110.994 31.4666 121.728 20.8943C129.391 13.3461 137.216 7.3422 144.77 3.85626C152.09 0.477832 160.606 -1.14463 168.377 2.62188L168.747 2.80548L168.765 2.81427C174.428 5.70979 178.015 10.7257 180.128 16.2215C182.215 21.6499 183.069 28.0118 183.102 34.7352L183.146 43.6541L165.307 43.741L165.264 34.8221L165.25 33.8182C165.146 28.8815 164.461 25.1819 163.478 22.6229C162.458 19.9714 161.34 19.055 160.652 18.701C159.732 18.2379 157.315 17.7122 152.244 20.0525C147.271 22.3474 141.129 26.8231 134.245 33.6033C126.874 40.8635 119.074 50.3499 111.397 61.5701C112.961 61.5481 114.533 61.535 116.111 61.535C146.356 61.535 174.11 65.6089 194.612 72.4422C204.816 75.8433 213.718 80.0895 220.252 85.2381C226.685 90.3075 232.063 97.301 232.063 106.132C232.063 113.742 228.031 120.018 222.88 124.779C217.73 129.539 210.733 133.515 202.762 136.805L194.518 140.209L187.711 123.721L195.955 120.317C202.849 117.471 207.745 114.477 210.771 111.68C213.796 108.883 214.225 107.012 214.225 106.132C214.224 105.109 213.61 102.716 209.211 99.2498C204.911 95.8617 198.137 92.4199 188.972 89.365C170.734 83.2863 144.972 79.3738 116.111 79.3738C110.604 79.3738 105.21 79.5171 99.959 79.7899C97.3328 84.3422 94.7576 89.0819 92.2578 93.9861C90.1819 98.0589 88.2288 102.108 86.4004 106.112C87.8718 109.335 89.4227 112.588 91.0547 115.858L92.2695 118.265L92.2705 118.268L93.5049 120.667C106.318 145.309 120.98 165.594 134.247 178.662C141.129 185.441 147.271 189.914 152.242 192.206C157.32 194.548 159.735 194.015 160.652 193.55L160.813 193.462C161.658 192.961 163.081 191.565 164.133 187.594C165.25 183.373 165.62 177.309 164.875 169.477C163.391 153.885 157.687 133.277 147.94 110.906L144.378 102.729L160.732 95.6033L164.295 103.781C174.527 127.267 180.918 149.757 182.634 167.788C183.488 176.768 183.234 185.146 181.377 192.16C179.524 199.158 175.743 205.879 168.756 209.442L168.751 209.444C160.883 213.45 152.211 211.835 144.772 208.405C137.218 204.921 129.392 198.919 121.729 191.371C106.699 176.567 90.8783 154.408 77.3623 128.284C72.7498 141.178 69.632 153.146 68.083 163.438C66.6453 172.991 66.6378 180.59 67.7061 185.959C68.7308 191.108 70.4244 192.866 71.3838 193.449L71.5654 193.551L71.5742 193.555L71.7148 193.621C73.2731 194.293 77.8866 194.496 86.9775 188.051L94.2529 182.892L104.571 197.444L97.2949 202.603L96.3438 203.267C86.437 210.069 74.2497 214.943 63.4717 209.447V209.448C55.6014 205.441 51.8088 197.474 50.21 189.44C48.5864 181.281 48.8416 171.421 50.4424 160.784C52.8481 144.799 58.4732 125.899 66.9033 106.112C63.8574 98.962 61.1786 91.9274 58.8848 85.1053C53.219 86.3601 47.9816 87.7883 43.251 89.365C34.0855 92.42 27.3113 95.8617 23.0117 99.2498C18.6129 102.716 17.9984 105.109 17.998 106.132C17.998 107.672 19.6193 111.78 28.9795 116.879L29.9102 117.376L37.8135 121.51L29.5459 137.316L21.6426 133.182L20.6162 132.636C10.0349 126.894 0.160156 118.231 0.160156 106.132C0.160488 97.301 5.53771 90.3075 11.9707 85.2381C18.5044 80.0894 27.4063 75.8433 37.6104 72.4422C42.6048 70.7775 48.03 69.2779 53.8164 67.9598C52.3622 62.2021 51.233 56.6841 50.4482 51.4754C48.8459 40.8402 48.5894 30.9808 50.2119 22.8221C51.8097 14.7884 55.6014 6.82346 63.4717 2.81622ZM77.4385 72.9012C72.1605 72.9013 67.8818 77.1799 67.8818 82.4578C67.8819 87.7357 72.1606 92.0144 77.4385 92.0145C82.7165 92.0145 86.9951 87.7358 86.9951 82.4578C86.9951 77.1798 82.7165 72.9012 77.4385 72.9012Z" fill="white"/>
</g>
</svg>
